<?xml version="1.0" encoding="UTF-8" standalone="no"?>
<!DOCTYPE svg PUBLIC "-//W3C//DTD SVG 1.1//EN" "http://www.w3.org/Graphics/SVG/1.1/DTD/svg11.dtd">
<svg width="100%" height="100%" viewBox="0 0 508 125" version="1.1" xmlns="http://www.w3.org/2000/svg" xmlns:xlink="http://www.w3.org/1999/xlink" xml:space="preserve" xmlns:serif="http://www.serif.com/" style="fill-rule:evenodd;clip-rule:evenodd;stroke-linejoin:round;stroke-miterlimit:1.41421;">
    <g transform="matrix(1,0,0,1,-235.405,-807.984)">
        <g transform="matrix(1,0,0,1,-565.642,422.042)">
            <g transform="matrix(1,0,0,0.672727,0,157.933)">
                <rect x="801.047" y="441.52" width="507.554" height="82.104" style="fill:rgb(229,242,13);fill-opacity:0.647059;"/>
            </g>
            <g transform="matrix(2.46792,0,0,2.46792,-355.911,-649.222)">
                <path d="M506.73,455.948C506.73,456.348 506.597,456.69 506.33,456.973C506.064,457.257 505.714,457.398 505.28,457.398C504.68,457.398 504.38,457.098 504.38,456.498C504.38,449.765 504.164,444.607 503.73,441.023C503.297,437.44 502.547,435.648 501.48,435.648C499.68,435.648 497.047,441.932 493.58,454.498L493.58,454.548C493.58,454.948 493.447,455.29 493.18,455.573C492.914,455.857 492.564,455.998 492.13,455.998C491.53,455.998 491.23,455.698 491.23,455.098C491.23,453.765 491.297,451.698 491.43,448.898C491.564,445.765 491.63,443.298 491.63,441.498C491.63,438.998 491.555,437.223 491.405,436.173C491.255,435.123 490.93,434.598 490.43,434.598C489.297,434.598 487.864,436.673 486.13,440.823C484.397,444.973 482.58,449.865 480.68,455.498L480.23,456.798C480.097,457.132 479.905,457.415 479.655,457.648C479.405,457.882 479.13,457.998 478.83,457.998C478.43,457.998 478.164,457.965 478.03,457.898C477.897,457.832 477.814,457.632 477.78,457.298C477.614,455.665 477.48,453.482 477.38,450.748C477.314,450.048 477.247,448.898 477.18,447.298C476.847,441.665 476.547,437.857 476.28,435.873C476.014,433.89 475.88,432.782 475.88,432.548C475.88,432.282 476.014,431.965 476.28,431.598C476.547,431.232 476.797,431.048 477.03,431.048C477.564,431.048 477.997,431.432 478.33,432.198C478.497,432.565 478.68,434.032 478.88,436.598C479.08,439.165 479.247,442.348 479.38,446.148L479.63,453.798C481.464,448.132 483.364,442.99 485.33,438.373C487.297,433.757 489.097,431.448 490.73,431.448C491.83,431.448 492.58,432.248 492.98,433.848C493.38,435.448 493.58,437.765 493.58,440.798C493.58,442.398 493.547,444.698 493.48,447.698L493.43,449.998C494.797,445.232 496.155,441.232 497.505,437.998C498.855,434.765 500.214,433.148 501.58,433.148C505.014,433.148 506.73,440.748 506.73,455.948Z" style="fill:white;fill-rule:nonzero;"/>
                <path d="M533.33,453.248C533.364,453.482 533.497,453.723 533.73,453.973C533.964,454.223 534.08,454.432 534.08,454.598C534.08,454.998 533.914,455.457 533.58,455.973C533.247,456.49 532.914,456.748 532.58,456.748C532.014,456.748 531.58,456.398 531.28,455.698C530.98,454.998 530.83,454.182 530.83,453.248C530.83,452.448 530.88,450.048 530.98,446.048L531.03,444.148C531.03,443.382 530.83,442.832 530.43,442.498C528.93,445.032 527.53,447.232 526.23,449.098C524.93,450.965 523.28,452.723 521.28,454.373C519.28,456.023 517.18,456.848 514.98,456.848C513.914,456.848 513.089,456.515 512.505,455.848C511.922,455.182 511.63,454.315 511.63,453.248C511.63,451.915 512.23,450.09 513.43,447.773C514.63,445.457 516.164,443.107 518.03,440.723C519.897,438.34 521.764,436.382 523.63,434.848C524.864,433.848 525.847,433.173 526.58,432.823C527.314,432.473 527.964,432.298 528.53,432.298C529.064,432.298 529.614,432.465 530.18,432.798C530.747,433.132 531.23,433.598 531.63,434.198C532.03,434.798 532.23,435.482 532.23,436.248C532.23,437.282 531.947,438.265 531.38,439.198L532.23,438.948C532.597,438.948 532.814,439.398 532.88,440.298C532.914,440.832 532.955,441.915 533.005,443.548C533.055,445.182 533.097,446.532 533.13,447.598C533.164,448.698 533.197,449.765 533.23,450.798C533.264,451.832 533.297,452.648 533.33,453.248ZM515.68,454.148C517.48,454.148 519.214,453.482 520.88,452.148C522.547,450.815 524.039,449.223 525.355,447.373C526.672,445.523 528.13,443.248 529.73,440.548C530.13,439.548 530.33,438.465 530.33,437.298C530.33,436.598 530.122,435.99 529.705,435.473C529.289,434.957 528.73,434.698 528.03,434.698C527.197,434.698 526.13,435.265 524.83,436.398C523.33,437.665 521.747,439.357 520.08,441.473C518.414,443.59 517.03,445.682 515.93,447.748C514.83,449.815 514.28,451.448 514.28,452.648C514.28,453.648 514.747,454.148 515.68,454.148Z" style="fill:white;fill-rule:nonzero;"/>
                <path d="M556.23,435.398C556.23,435.698 556.022,436.04 555.605,436.423C555.189,436.807 554.83,436.998 554.53,436.998C554.297,436.998 554.072,436.898 553.855,436.698C553.639,436.498 553.397,436.215 553.13,435.848C552.897,435.515 552.589,435.232 552.205,434.998C551.822,434.765 551.43,434.648 551.03,434.648C550.064,434.648 548.764,435.923 547.13,438.473C545.497,441.023 543.897,444.232 542.33,448.098C542.364,448.865 542.422,449.832 542.505,450.998C542.589,452.165 542.647,453.032 542.68,453.598L542.83,455.598C542.83,456.065 542.73,456.473 542.53,456.823C542.33,457.173 541.964,457.348 541.43,457.348C540.864,457.348 540.497,456.59 540.33,455.073C540.164,453.557 540.064,451.348 540.03,448.448C539.997,447.715 539.972,446.665 539.955,445.298C539.939,443.932 539.897,442.298 539.83,440.398C539.73,437.532 539.68,435.482 539.68,434.248C539.68,433.482 540.147,433.098 541.08,433.098C541.647,433.098 541.989,433.34 542.105,433.823C542.222,434.307 542.28,435.232 542.28,436.598L542.28,444.548C543.28,441.982 544.364,439.765 545.53,437.898C546.697,436.032 547.839,434.607 548.955,433.623C550.072,432.64 551.064,432.148 551.93,432.148C552.664,432.148 553.364,432.315 554.03,432.648C554.697,432.982 555.23,433.407 555.63,433.923C556.03,434.44 556.23,434.932 556.23,435.398Z" style="fill:white;fill-rule:nonzero;"/>
                <path d="M582.53,434.898C582.53,435.365 582.305,435.857 581.855,436.373C581.405,436.89 580.98,437.148 580.58,437.148C580.314,437.148 580.014,437.007 579.68,436.723C579.347,436.44 579.114,436.298 578.98,436.298C578.08,436.298 576.647,436.915 574.68,438.148C572.714,439.382 570.697,440.832 568.63,442.498C566.564,444.165 564.98,445.582 563.88,446.748L563.93,447.648C566.464,448.815 569.28,450.065 572.38,451.398C575.48,452.732 577.63,453.515 578.83,453.748C579.297,453.815 579.764,453.865 580.23,453.898C580.697,453.932 581.03,453.948 581.23,453.948C581.53,453.948 581.78,453.965 581.98,453.998C582.18,454.032 582.28,454.098 582.28,454.198C582.28,454.598 581.972,454.998 581.355,455.398C580.739,455.798 579.814,455.998 578.58,455.998C577.48,455.998 575.989,455.59 574.105,454.773C572.222,453.957 569.997,452.882 567.43,451.548L564.28,449.998C564.714,454.232 564.93,456.565 564.93,456.998C564.93,457.365 564.747,457.665 564.38,457.898C564.014,458.132 563.614,458.248 563.18,458.248C562.914,458.248 562.697,457.848 562.53,457.048C562.364,456.248 562.164,454.665 561.93,452.298L561.58,449.248C561.18,449.082 560.83,448.84 560.53,448.523C560.23,448.207 560.08,447.915 560.08,447.648C560.08,447.248 560.414,446.782 561.08,446.248C561.047,444.448 560.955,441.882 560.805,438.548C560.655,435.215 560.547,432.782 560.48,431.248L560.23,424.298C560.23,423.365 560.347,422.565 560.58,421.898C560.814,421.232 561.33,420.898 562.13,420.898C562.43,420.898 562.63,420.957 562.73,421.073C562.83,421.19 562.88,421.415 562.88,421.748C562.88,423.282 562.989,426.84 563.205,432.423C563.422,438.007 563.597,441.982 563.73,444.348C571.164,437.282 576.597,433.748 580.03,433.748C580.73,433.748 581.322,433.873 581.805,434.123C582.289,434.373 582.53,434.632 582.53,434.898Z" style="fill:white;fill-rule:nonzero;"/>
                <path d="M602.88,443.698C603.114,443.698 603.23,443.948 603.23,444.448C603.23,445.048 602.789,446.365 601.905,448.398C601.022,450.432 599.689,452.315 597.905,454.048C596.122,455.782 593.93,456.648 591.33,456.648C589.197,456.648 587.414,455.982 585.98,454.648C584.547,453.315 583.83,451.265 583.83,448.498C583.83,445.898 584.43,443.323 585.63,440.773C586.83,438.223 588.397,436.14 590.33,434.523C592.264,432.907 594.264,432.098 596.33,432.098C597.564,432.098 598.605,432.373 599.455,432.923C600.305,433.473 600.73,434.265 600.73,435.298C600.73,436.465 600.072,437.598 598.755,438.698C597.439,439.798 595.73,440.765 593.63,441.598C591.53,442.432 589.364,443.032 587.13,443.398C586.73,444.932 586.53,446.432 586.53,447.898C586.53,449.832 586.989,451.332 587.905,452.398C588.822,453.465 590.13,453.998 591.83,453.998C594.397,453.998 596.48,453.082 598.08,451.248C599.68,449.415 601.014,447.348 602.08,445.048C602.147,444.915 602.264,444.657 602.43,444.273C602.597,443.89 602.747,443.698 602.88,443.698ZM598.48,435.848C598.48,435.315 598.205,434.898 597.655,434.598C597.105,434.298 596.464,434.148 595.73,434.148C594.464,434.148 593.247,434.565 592.08,435.398C590.914,436.232 589.939,437.232 589.155,438.398C588.372,439.565 587.864,440.598 587.63,441.498C589.164,441.332 590.78,440.898 592.48,440.198C594.18,439.498 595.605,438.732 596.755,437.898C597.905,437.065 598.48,436.382 598.48,435.848Z" style="fill:white;fill-rule:nonzero;"/>
                <path d="M624.33,435.398C624.33,435.698 624.122,436.04 623.705,436.423C623.289,436.807 622.93,436.998 622.63,436.998C622.397,436.998 622.172,436.898 621.955,436.698C621.739,436.498 621.497,436.215 621.23,435.848C620.997,435.515 620.689,435.232 620.305,434.998C619.922,434.765 619.53,434.648 619.13,434.648C618.164,434.648 616.864,435.923 615.23,438.473C613.597,441.023 611.997,444.232 610.43,448.098C610.464,448.865 610.522,449.832 610.605,450.998C610.689,452.165 610.747,453.032 610.78,453.598L610.93,455.598C610.93,456.065 610.83,456.473 610.63,456.823C610.43,457.173 610.064,457.348 609.53,457.348C608.964,457.348 608.597,456.59 608.43,455.073C608.264,453.557 608.164,451.348 608.13,448.448C608.097,447.715 608.072,446.665 608.055,445.298C608.039,443.932 607.997,442.298 607.93,440.398C607.83,437.532 607.78,435.482 607.78,434.248C607.78,433.482 608.247,433.098 609.18,433.098C609.747,433.098 610.089,433.34 610.205,433.823C610.322,434.307 610.38,435.232 610.38,436.598L610.38,444.548C611.38,441.982 612.464,439.765 613.63,437.898C614.797,436.032 615.939,434.607 617.055,433.623C618.172,432.64 619.164,432.148 620.03,432.148C620.764,432.148 621.464,432.315 622.13,432.648C622.797,432.982 623.33,433.407 623.73,433.923C624.13,434.44 624.33,434.932 624.33,435.398Z" style="fill:white;fill-rule:nonzero;"/>
                <path d="M633.93,456.948C633.93,457.448 633.38,457.698 632.28,457.698C631.647,457.698 631.072,457.34 630.555,456.623C630.039,455.907 629.622,455.107 629.305,454.223C628.989,453.34 628.83,452.765 628.83,452.498C628.83,452.132 629.005,451.782 629.355,451.448C629.705,451.115 630.064,450.948 630.43,450.948C630.664,450.948 630.847,451.04 630.98,451.223C631.114,451.407 631.314,451.715 631.58,452.148C631.914,452.748 632.197,453.132 632.43,453.298C632.864,453.632 633.222,454.248 633.505,455.148C633.789,456.048 633.93,456.648 633.93,456.948Z" style="fill:white;fill-rule:nonzero;"/>
                <path d="M641.83,423.048C641.83,423.615 641.397,423.898 640.53,423.898C639.897,423.898 639.33,423.707 638.83,423.323C638.33,422.94 637.93,422.515 637.63,422.048C637.33,421.582 637.18,421.232 637.18,420.998C637.18,420.632 637.355,420.282 637.705,419.948C638.055,419.615 638.414,419.448 638.78,419.448C639.014,419.448 639.222,419.557 639.405,419.773C639.589,419.99 639.797,420.315 640.03,420.748C640.264,421.215 640.497,421.565 640.73,421.798C640.83,421.898 641.039,422.107 641.355,422.423C641.672,422.74 641.83,422.948 641.83,423.048ZM643.88,457.748C643.88,460.548 643.364,462.648 642.33,464.048C641.297,465.448 639.93,466.148 638.23,466.148C636.83,466.148 635.63,465.907 634.63,465.423C633.63,464.94 632.88,464.365 632.38,463.698C631.88,463.032 631.63,462.398 631.63,461.798C631.63,461.532 631.739,461.265 631.955,460.998C632.172,460.732 632.347,460.598 632.48,460.598C632.68,460.598 632.839,460.682 632.955,460.848C633.072,461.015 633.164,461.148 633.23,461.248C633.897,462.148 634.555,462.832 635.205,463.298C635.855,463.765 636.647,463.998 637.58,463.998C639.047,463.998 640.064,463.507 640.63,462.523C641.197,461.54 641.48,460.032 641.48,457.998C641.48,456.898 641.405,455.523 641.255,453.873C641.105,452.223 640.947,450.665 640.78,449.198C640.747,448.732 640.697,448.265 640.63,447.798C640.564,447.332 640.514,446.865 640.48,446.398C640.28,444.132 639.947,441.482 639.48,438.448C639.147,436.215 638.98,434.815 638.98,434.248C638.98,433.782 639.03,433.473 639.13,433.323C639.23,433.173 639.497,433.098 639.93,433.098C640.53,433.098 640.989,433.507 641.305,434.323C641.622,435.14 641.847,436.382 641.98,438.048C642.114,440.048 642.414,442.932 642.88,446.698C643.547,452.832 643.88,456.515 643.88,457.748Z" style="fill:white;fill-rule:nonzero;"/>
                <path d="M667.38,449.448C667.38,450.915 666.789,452.323 665.605,453.673C664.422,455.023 662.864,456.107 660.93,456.923C658.997,457.74 656.98,458.148 654.88,458.148C653.447,458.148 652.48,458.015 651.98,457.748C651.48,457.482 651.23,457.115 651.23,456.648C651.23,456.348 651.614,455.823 652.38,455.073C653.147,454.323 653.664,453.948 653.93,453.948C654.33,453.948 654.53,454.032 654.53,454.198C654.53,454.332 654.447,454.465 654.28,454.598C654.114,454.732 654.03,454.848 654.03,454.948C654.03,455.082 654.239,455.215 654.655,455.348C655.072,455.482 655.58,455.548 656.18,455.548C657.58,455.548 658.989,455.29 660.405,454.773C661.822,454.257 662.98,453.582 663.88,452.748C664.78,451.915 665.23,451.032 665.23,450.098C665.23,449.198 664.947,448.482 664.38,447.948C663.814,447.415 663.105,447.023 662.255,446.773C661.405,446.523 659.98,446.165 657.98,445.698C655.78,445.198 654.072,444.757 652.855,444.373C651.639,443.99 650.664,443.507 649.93,442.923C649.197,442.34 648.83,441.598 648.83,440.698C648.83,439.098 649.614,437.632 651.18,436.298C652.747,434.965 654.547,433.915 656.58,433.148C658.614,432.382 660.18,431.998 661.28,431.998C662.414,431.998 662.98,432.332 662.98,432.998C662.98,433.398 662.847,433.84 662.58,434.323C662.314,434.807 661.914,435.048 661.38,435.048C661.18,435.048 660.964,434.973 660.73,434.823C660.497,434.673 660.264,434.598 660.03,434.598C659.364,434.598 658.314,434.815 656.88,435.248C655.447,435.682 654.147,436.332 652.98,437.198C651.814,438.065 651.23,439.115 651.23,440.348C651.23,441.148 651.689,441.74 652.605,442.123C653.522,442.507 655.23,442.982 657.73,443.548C658.03,443.648 658.33,443.723 658.63,443.773C658.93,443.823 659.197,443.882 659.43,443.948C661.997,444.548 663.964,445.232 665.33,445.998C666.697,446.765 667.38,447.915 667.38,449.448Z" style="fill:white;fill-rule:nonzero;"/>
            </g>
        </g>
    </g>
</svg>
